<svg width="357" height="371" viewBox="0 0 357 371" fill="none" xmlns="http://www.w3.org/2000/svg">
<path d="M27.6469 308.793V41.0009C27.6469 29.4431 41.4932 23.5148 49.8569 31.4917V31.4917L156.256 151.076C161.693 157.187 169.483 160.682 177.662 160.682V160.682M177.662 160.682V160.682C188.546 160.682 198.889 155.936 205.986 147.684L300.012 38.3638V38.3638C311.195 27.7695 329.626 35.6971 329.626 51.1014V308.793M177.662 160.682C147.856 127.562 84.1461 257.569 84.1461 308.793M177.662 160.682C204.477 133.017 272.347 247.995 272.347 308.793M105.966 257.569H245.461" stroke="#DEDBDB" stroke-width="54" stroke-linejoin="round"/>
<path d="M7.63636 324.455H14.3636L30.1818 363.091H30.7273L46.5455 324.455H53.2727V371H48V335.636H47.5455L33 371H27.9091L13.3636 335.636H12.9091V371H7.63636V324.455ZM70.3339 371V324.455H98.4248V329.455H75.9702V345.182H96.9702V350.182H75.9702V366H98.7884V371H70.3339ZM114.344 371V324.455H119.98V345.182H144.798V324.455H150.435V371H144.798V350.182H119.98V371H114.344ZM169.388 371H163.479L180.57 324.455H186.388L203.479 371H197.57L183.661 331.818H183.297L169.388 371ZM171.57 352.818H195.388V357.818H171.57V352.818ZM253.398 324.455V371H247.943L222.58 334.455H222.125V371H216.489V324.455H221.943L247.398 361.091H247.853V324.455H253.398ZM270.436 371V324.455H298.527V329.455H276.073V345.182H297.073V350.182H276.073V366H298.891V371H270.436ZM328.81 371H314.446V324.455H329.446C333.962 324.455 337.825 325.386 341.037 327.25C344.249 329.098 346.712 331.758 348.424 335.227C350.136 338.682 350.992 342.818 350.992 347.636C350.992 352.485 350.128 356.659 348.401 360.159C346.674 363.644 344.158 366.326 340.855 368.205C337.552 370.068 333.537 371 328.81 371ZM320.083 366H328.446C332.295 366 335.484 365.258 338.015 363.773C340.545 362.288 342.431 360.174 343.674 357.432C344.916 354.689 345.537 351.424 345.537 347.636C345.537 343.879 344.924 340.644 343.696 337.932C342.469 335.205 340.636 333.114 338.196 331.659C335.757 330.189 332.719 329.455 329.083 329.455H320.083V366Z" fill="#DEDBDB"/>
</svg>
